<?xml version="1.0" encoding="UTF-8" standalone="no"?>
<!-- Created with Inkscape (http://www.inkscape.org/) -->

<svg
   width="512"
   height="512"
   viewBox="0 0 512 512"
   version="1.1"
   id="svg5"
   xml:space="preserve"
   inkscape:version="1.2.1 (9c6d41e410, 2022-07-14)"
   sodipodi:docname="icon.svg"
   xmlns:inkscape="http://www.inkscape.org/namespaces/inkscape"
   xmlns:sodipodi="http://sodipodi.sourceforge.net/DTD/sodipodi-0.dtd"
   xmlns="http://www.w3.org/2000/svg"
   xmlns:svg="http://www.w3.org/2000/svg"><sodipodi:namedview
     id="namedview7"
     pagecolor="#ffffff"
     bordercolor="#111111"
     borderopacity="1"
     inkscape:showpageshadow="0"
     inkscape:pageopacity="0"
     inkscape:pagecheckerboard="1"
     inkscape:deskcolor="#d1d1d1"
     inkscape:document-units="px"
     showgrid="false"
     inkscape:zoom="2"
     inkscape:cx="277.75"
     inkscape:cy="267.5"
     inkscape:window-width="1920"
     inkscape:window-height="1009"
     inkscape:window-x="-8"
     inkscape:window-y="-8"
     inkscape:window-maximized="1"
     inkscape:current-layer="layer1" /><defs
     id="defs2" /><g
     inkscape:label="Warstwa 1"
     inkscape:groupmode="layer"
     id="layer1"><rect
       style="fill:#005233;fill-opacity:1;stroke:#005233;stroke-width:2.4;stroke-opacity:1"
       id="rect4369"
       width="508.40979"
       height="509.82404"
       x="2.8284211"
       y="0.70710647"
       ry="54.047535"
       rx="0" /><path
       id="path3036"
       style="fill:#002819;fill-opacity:1;stroke-width:0.499346"
       d="M 56.875 0.70703125 C 26.932696 0.70703125 2.828125 24.811602 2.828125 54.753906 L 2.828125 456.48438 C 2.828125 486.42668 26.932696 510.53125 56.875 510.53125 L 215.7168 510.53125 L 341.99805 383.97656 L 469.69336 256.00391 L 341.99805 128.0332 L 214.94727 0.70703125 L 56.875 0.70703125 z M 199.58984 162.52539 L 221.28711 162.52539 L 242.98633 162.52539 L 242.98633 196.51367 L 242.98633 230.50195 L 246.12695 226.88281 C 249.81095 222.63845 256.2917 217.27118 260.35352 215.10156 C 265.82144 212.18089 270.21712 211.28768 278.90039 211.33008 C 285.19051 211.36085 287.37459 211.57081 290.62109 212.45312 C 298.54669 214.6071 304.47141 218.15214 310.14062 224.13477 C 316.79097 231.15278 320.57951 239.77348 322.2793 251.75586 C 322.57749 253.85787 322.77916 272.67092 322.78516 298.87109 L 322.79492 342.48438 L 301.3457 342.48438 C 289.54894 342.48437 279.86823 342.42807 279.83203 342.35938 C 279.79576 342.29065 279.62651 324.80182 279.45703 303.49414 L 279.14844 264.75195 L 277.74219 261.88086 C 275.07244 256.43229 268.29143 253.09532 260.95898 253.62109 C 255.80836 253.99041 251.74376 256.14569 246.85156 261.10352 L 242.98633 265.02148 L 242.98633 303.75391 L 242.98633 342.48438 L 221.28711 342.48438 L 199.58984 342.48438 L 199.58984 252.50586 L 199.58984 162.52539 z M 136.24023 177.52344 L 136.24023 196.26758 L 136.24023 215.01367 L 152.95117 215.01367 L 169.66016 215.01367 L 169.66016 232.00977 L 169.66016 249.00586 L 152.95117 249.00586 L 136.24023 249.00586 L 136.24414 266.62695 C 136.24622 276.31851 136.4557 286.0546 136.70898 288.26172 C 137.58358 295.88271 140.33562 300.74603 145.07422 303.04492 C 146.96234 303.96092 148.16443 304.14612 151.98828 304.10742 C 157.44801 304.05201 162.03949 303.01251 167.11328 300.68555 C 169.14091 299.75563 170.88002 298.99414 170.97852 298.99414 C 171.07707 298.99414 171.1582 306.72415 171.1582 316.17188 L 171.1582 333.34961 L 168.71094 335.64453 C 163.87531 340.17751 157.92578 343.33102 151.01172 345.02539 C 147.06094 345.99357 135.02509 346.70779 131.50195 346.18359 C 115.77716 343.84395 102.11514 333.70782 96.791016 320.43164 C 93.570032 312.39984 93.672022 313.64253 93.474609 279.875 L 93.294922 249.00586 L 82.595703 249.00586 L 71.894531 249.00586 L 71.894531 235.60156 L 71.894531 222.19531 L 74.763672 221.30078 C 81.01647 219.35099 89.310067 214.16787 95.964844 208.05078 C 102.22406 202.29731 108.4908 191.90838 111.58398 182.1582 L 113.04688 177.54688 L 124.64453 177.53516 L 136.24023 177.52344 z " /><path
       id="path3080"
       style="fill:#00d789;stroke-width:0.499113"
       d="M 216.94922 0.70703125 L 343.98633 128.17773 L 471.66797 256.29297 L 344.23633 384.1582 L 218.28711 510.53125 L 457.19141 510.53125 C 487.13371 510.53125 511.23828 486.42668 511.23828 456.48438 L 511.23828 54.753906 C 511.23828 24.811602 487.13371 0.70703125 457.19141 0.70703125 L 216.94922 0.70703125 z M 201.60547 162.54883 L 201.60547 252.54297 L 201.60547 342.53516 L 222.7832 342.53516 L 243.95898 342.53516 L 243.95898 303.79102 L 243.95898 265.04492 L 247.48242 261.32227 C 249.42047 259.27507 252.05709 256.92291 253.3418 256.0957 C 257.82196 253.21103 264.24223 252.31315 269.4043 253.84766 C 274.7392 255.43353 277.97361 258.02668 279.93164 262.29102 L 281.08008 264.79102 L 281.21875 303.66406 L 281.35742 342.53516 L 302.80664 342.53516 L 324.25586 342.53516 L 324.03711 298.41406 C 323.79881 250.47894 323.84012 251.25015 320.89062 241.54297 C 316.52747 227.18321 305.94993 216.70367 292.04102 212.95898 C 286.61223 211.4974 274.24898 211.37058 269.37109 212.72656 C 264.86984 213.97785 260.6891 216.06235 256.90039 218.94336 C 253.58383 221.46534 244.95508 230.22486 244.95508 231.07031 C 244.95508 231.33115 244.73107 231.54492 244.45703 231.54492 C 244.12967 231.54492 243.95898 219.71174 243.95898 197.04688 L 243.95898 162.54883 L 222.7832 162.54883 L 201.60547 162.54883 z M 115.09375 177.54883 L 113.95312 181.50781 C 112.49485 186.5717 108.1827 195.5472 104.98047 200.18555 C 101.85628 204.71087 95.933663 210.59292 90.742188 214.32422 C 86.497081 217.37534 77.855079 221.82556 75.169922 222.34375 L 73.550781 222.65625 L 73.550781 235.59961 L 73.550781 248.54297 L 84.263672 248.54297 L 94.976562 248.54297 L 94.980469 274.16602 C 94.985142 302.25671 95.33811 308.72952 97.220703 315.24805 C 101.72998 330.86146 114.20696 342.10287 130.60352 345.32812 C 135.65734 346.32221 147.33307 345.92306 152.52734 344.57812 C 158.70759 342.97791 165.18792 339.53258 169.24805 335.68945 L 172.70703 332.41602 L 172.70703 315.97656 C 172.70703 306.93558 172.60768 299.53906 172.48633 299.53906 C 172.36497 299.53906 171.52351 299.9755 170.61719 300.50781 C 166.74099 302.78447 161.22419 304.16645 155.01758 304.41797 C 148.51172 304.6816 146.89976 304.31245 143.62305 301.80469 C 141.57686 300.23869 139.12825 295.72507 138.38086 292.14062 C 138.02844 290.45046 137.82812 282.0786 137.82812 269.01758 L 137.82812 248.54297 L 154.51953 248.54297 L 171.21289 248.54297 L 171.21289 231.79492 L 171.21289 215.04492 L 154.51953 215.04492 L 137.82812 215.04492 L 137.82812 196.29688 L 137.82812 177.54883 L 126.46094 177.54883 L 115.09375 177.54883 z " /></g></svg>
