<?xml version="1.0" encoding="UTF-8" standalone="no"?>
<!-- Created with Inkscape (http://www.inkscape.org/) -->

<svg
   width="512"
   height="512"
   viewBox="0 0 512 512"
   version="1.1"
   id="svg5"
   xml:space="preserve"
   inkscape:version="1.2.1 (9c6d41e410, 2022-07-14)"
   sodipodi:docname="icon-fg.svg"
   xmlns:inkscape="http://www.inkscape.org/namespaces/inkscape"
   xmlns:sodipodi="http://sodipodi.sourceforge.net/DTD/sodipodi-0.dtd"
   xmlns="http://www.w3.org/2000/svg"
   xmlns:svg="http://www.w3.org/2000/svg"><sodipodi:namedview
     id="namedview7"
     pagecolor="#ffffff"
     bordercolor="#111111"
     borderopacity="1"
     inkscape:showpageshadow="0"
     inkscape:pageopacity="0"
     inkscape:pagecheckerboard="1"
     inkscape:deskcolor="#d1d1d1"
     inkscape:document-units="px"
     showgrid="false"
     inkscape:zoom="2"
     inkscape:cx="278.25"
     inkscape:cy="188"
     inkscape:window-width="1920"
     inkscape:window-height="1009"
     inkscape:window-x="-8"
     inkscape:window-y="-8"
     inkscape:window-maximized="1"
     inkscape:current-layer="layer1" /><defs
     id="defs2" /><g
     inkscape:label="Warstwa 1"
     inkscape:groupmode="layer"
     id="layer1"><path
       id="path3080"
       style="fill:#00d789;stroke-width:0.499113"
       d="M 216.94922 0.70703125 L 343.98633 128.17773 L 471.66797 256.29297 L 344.23633 384.1582 L 218.28711 510.53125 L 457.19141 510.53125 C 487.13371 510.53125 511.23828 486.42668 511.23828 456.48438 L 511.23828 54.753906 C 511.23828 24.811602 487.13371 0.70703125 457.19141 0.70703125 L 216.94922 0.70703125 z M 201.60547 162.54883 L 201.60547 252.54297 L 201.60547 342.53516 L 222.7832 342.53516 L 243.95898 342.53516 L 243.95898 303.79102 L 243.95898 265.04492 L 247.48242 261.32227 C 249.42047 259.27507 252.05709 256.92291 253.3418 256.0957 C 257.82196 253.21103 264.24223 252.31315 269.4043 253.84766 C 274.7392 255.43353 277.97361 258.02668 279.93164 262.29102 L 281.08008 264.79102 L 281.21875 303.66406 L 281.35742 342.53516 L 302.80664 342.53516 L 324.25586 342.53516 L 324.03711 298.41406 C 323.79881 250.47894 323.84012 251.25015 320.89062 241.54297 C 316.52747 227.18321 305.94993 216.70367 292.04102 212.95898 C 286.61223 211.4974 274.24898 211.37058 269.37109 212.72656 C 264.86984 213.97785 260.6891 216.06235 256.90039 218.94336 C 253.58383 221.46534 244.95508 230.22486 244.95508 231.07031 C 244.95508 231.33115 244.73107 231.54492 244.45703 231.54492 C 244.12967 231.54492 243.95898 219.71174 243.95898 197.04688 L 243.95898 162.54883 L 222.7832 162.54883 L 201.60547 162.54883 z M 115.09375 177.54883 L 113.95312 181.50781 C 112.49485 186.5717 108.1827 195.5472 104.98047 200.18555 C 101.85628 204.71087 95.933663 210.59292 90.742188 214.32422 C 86.497081 217.37534 77.855079 221.82556 75.169922 222.34375 L 73.550781 222.65625 L 73.550781 235.59961 L 73.550781 248.54297 L 84.263672 248.54297 L 94.976562 248.54297 L 94.980469 274.16602 C 94.985142 302.25671 95.33811 308.72952 97.220703 315.24805 C 101.72998 330.86146 114.20696 342.10287 130.60352 345.32812 C 135.65734 346.32221 147.33307 345.92306 152.52734 344.57812 C 158.70759 342.97791 165.18792 339.53258 169.24805 335.68945 L 172.70703 332.41602 L 172.70703 315.97656 C 172.70703 306.93558 172.60768 299.53906 172.48633 299.53906 C 172.36497 299.53906 171.52351 299.9755 170.61719 300.50781 C 166.74099 302.78447 161.22419 304.16645 155.01758 304.41797 C 148.51172 304.6816 146.89976 304.31245 143.62305 301.80469 C 141.57686 300.23869 139.12825 295.72507 138.38086 292.14062 C 138.02844 290.45046 137.82812 282.0786 137.82812 269.01758 L 137.82812 248.54297 L 154.51953 248.54297 L 171.21289 248.54297 L 171.21289 231.79492 L 171.21289 215.04492 L 154.51953 215.04492 L 137.82812 215.04492 L 137.82812 196.29688 L 137.82812 177.54883 L 126.46094 177.54883 L 115.09375 177.54883 z " /></g></svg>
