<?xml version="1.0" encoding="UTF-8" standalone="no"?>
<!-- Created with Inkscape (http://www.inkscape.org/) -->

<svg
   width="512"
   height="512"
   viewBox="0 0 512 512"
   version="1.1"
   id="svg5"
   xml:space="preserve"
   inkscape:version="1.2.1 (9c6d41e410, 2022-07-14)"
   sodipodi:docname="icon_foreground.svg"
   xmlns:inkscape="http://www.inkscape.org/namespaces/inkscape"
   xmlns:sodipodi="http://sodipodi.sourceforge.net/DTD/sodipodi-0.dtd"
   xmlns="http://www.w3.org/2000/svg"
   xmlns:svg="http://www.w3.org/2000/svg"><sodipodi:namedview
     id="namedview7"
     pagecolor="#ffffff"
     bordercolor="#111111"
     borderopacity="1"
     inkscape:showpageshadow="0"
     inkscape:pageopacity="0"
     inkscape:pagecheckerboard="1"
     inkscape:deskcolor="#d1d1d1"
     inkscape:document-units="px"
     showgrid="false"
     inkscape:zoom="1.4142136"
     inkscape:cx="304.40947"
     inkscape:cy="217.08178"
     inkscape:window-width="1920"
     inkscape:window-height="1009"
     inkscape:window-x="-8"
     inkscape:window-y="-8"
     inkscape:window-maximized="1"
     inkscape:current-layer="layer1" /><defs
     id="defs2" /><g
     inkscape:label="Warstwa 1"
     inkscape:groupmode="layer"
     id="layer1"><path
       style="fill:#00d789;stroke-width:0.389466"
       d="m 154.04382,194.69959 -0.89006,3.08926 c -1.13791,3.95144 -4.50275,10.95517 -7.0015,14.57455 -2.43786,3.53118 -7.05937,8.12104 -11.11037,11.03264 -3.31252,2.38083 -10.05602,5.85341 -12.15129,6.25777 l -1.26344,0.24385 v 10.09991 10.09992 h 8.35944 8.35944 l 0.003,19.99409 c 0.004,21.91962 0.27908,26.97046 1.74809,32.05698 3.51867,12.1834 13.25466,20.95526 26.04917,23.47197 3.94357,0.77571 13.05434,0.46424 17.10751,-0.58524 4.82255,-1.24867 9.87926,-3.93711 13.04745,-6.93597 l 2.6991,-2.55431 v -12.82798 c 0,-7.05483 -0.0775,-12.82645 -0.17222,-12.82645 -0.0947,0 -0.7513,0.34056 -1.45852,0.75593 -3.02466,1.77651 -7.32951,2.85489 -12.17263,3.05116 -5.07663,0.20571 -6.33447,-0.0823 -8.89134,-2.03919 -1.59668,-1.22197 -3.50737,-4.74402 -4.09057,-7.54103 -0.275,-1.31886 -0.43131,-7.85156 -0.43131,-18.04329 v -15.97667 h 13.02458 13.0261 v -13.06878 -13.0703 h -13.0261 -13.02458 v -14.6294 -14.62942 h -8.87 z"
       id="path388" /><path
       style="fill:#00d789;stroke-width:0.389466"
       d="m 221.55033,182.99485 v 70.2239 70.22239 h 16.52533 16.52381 v -30.23269 -30.23422 l 2.7494,-2.90484 c 1.51229,-1.59747 3.56969,-3.4329 4.57217,-4.07838 3.49595,-2.25096 8.50579,-2.95159 12.53384,-1.75418 4.16291,1.23748 6.68677,3.26095 8.21465,6.58849 l 0.89615,1.95079 0.10821,30.33327 0.1082,30.33176 h 16.73718 16.73718 l -0.17069,-34.42842 c -0.18595,-37.40456 -0.15372,-36.80277 -2.45526,-44.37745 -3.40464,-11.20515 -11.65847,-19.38251 -22.51182,-22.30455 -4.23617,-1.1405 -13.88342,-1.23946 -17.68972,-0.18137 -3.5124,0.97641 -6.7747,2.60298 -9.73109,4.85108 -2.58797,1.96794 -9.32112,8.80314 -9.32112,9.46285 0,0.20354 -0.1748,0.37035 -0.38864,0.37035 -0.25544,0 -0.38864,-9.23362 -0.38864,-26.91939 v -26.91939 h -16.52381 z"
       id="path386" /><path
       style="fill:#00d789;stroke-width:0.497457"
       d="M 180.35171,2.3811292 306.96738,129.42894 434.22543,257.11916 307.21655,384.5602 181.68516,510.51401 h 274.17418 c 29.84297,0 53.86758,-24.0246 53.86758,-53.86757 V 56.248704 c 0,-29.842971 -24.02461,-53.8675748 -53.86758,-53.8675748 z"
       id="path3080"
       sodipodi:nodetypes="cccccssssc" /></g></svg>
